Coordinates
version=1
nRows=16
nColumns=22
inDegrees=yes

Units are S.I. units (second, meters, Newtons, ...)
If the header above contains a line with 'inDegrees', this indicates whether rotational values are in degrees (yes) or radians (no).

endheader
time	pelvis_tilt	pelvis_list	pelvis_rotation	pelvis_tx	pelvis_ty	pelvis_tz	hip_flexion_r	hip_adduction_r	hip_rotation_r	knee_angle_r	ankle_angle_r	subtalar_angle_r	hip_flexion_l	hip_adduction_l	hip_rotation_l	knee_angle_l	ankle_angle_l	subtalar_angle_l	lumbar_extension	lumbar_bending	lumbar_rotation
      3.90000000	     -4.23720420	      0.79622234	    -87.53218106	      0.07523153	      0.94234333	      1.07841080	      1.98512581	      9.24259149	     12.84243232	    -38.32182322	      8.41701438	      6.71692410	     25.54152114	     -5.44347762	     -0.07298507	    -23.85783615	      0.15565031	     -2.16872598	     -3.05063022	      1.55191777	      6.41002745
      3.91000000	     -4.18532192	      0.75279416	    -87.62146044	      0.07802737	      0.94286167	      1.08418898	      2.65467348	      9.09695708	     12.51544326	    -39.91162890	      7.36394403	      8.02230638	     25.23285842	     -5.24902896	     -0.21810062	    -24.09969642	      0.27682280	     -2.60772109	     -3.10863411	      1.47947206	      6.26212343
      3.92000000	     -4.13327943	      0.65795528	    -87.70548223	      0.08077774	      0.94339199	      1.08980239	      3.33021754	      8.94136381	     12.16867363	    -41.56271079	      6.36598342	      9.43228924	     24.86782050	     -5.06078106	     -0.37841093	    -24.32734161	      0.54171649	     -2.98090046	     -3.24854813	      1.41360305	      6.08570537
      3.93000000	     -4.05703338	      0.58239968	    -87.78396681	      0.08347871	      0.94381339	      1.09520377	      4.11339586	      8.73647514	     11.75952730	    -43.31966416	      5.50040560	     10.75944180	     24.53532719	     -4.85717456	     -0.58934382	    -24.55481163	      0.83205508	     -3.29740556	     -3.39119499	      1.32019099	      5.87223836
      3.94000000	     -3.96702168	      0.47224567	    -87.86215362	      0.08611674	      0.94425522	      1.10044108	      4.91608852	      8.49795295	     11.33131956	    -45.13020653	      4.76895931	     12.14421288	     24.15129563	     -4.64619311	     -0.79509662	    -24.74884102	      1.18655965	     -3.54281844	     -3.59054844	      1.21454814	      5.64858649
      3.95000000	     -3.85240180	      0.36040459	    -87.93499953	      0.08870122	      0.94466213	      1.10550761	      5.77043163	      8.20853296	     10.87734994	    -46.98673901	      4.22374359	     13.43542548	     23.76814026	     -4.41659098	     -1.01587774	    -24.93617286	      1.57057422	     -3.72363207	     -3.80720159	      1.08193872	      5.38728799
      3.96000000	     -3.72237737	      0.24338157	    -88.00414255	      0.09125735	      0.94506970	      1.11040723	      6.65895885	      7.87671300	     10.41247898	    -48.85102419	      3.85481464	     14.61472804	     23.36760288	     -4.16955320	     -1.22009954	    -25.09042538	      1.97991287	     -3.85373427	     -4.04245560	      0.94075791	      5.11945899
      3.97000000	     -3.56816945	      0.13712392	    -88.06852219	      0.09374747	      0.94546317	      1.11515345	      7.58448927	      7.49912629	      9.94444317	    -50.69102283	      3.68537086	     15.51714562	     22.97448711	     -3.89920100	     -1.42429966	    -25.22493241	      2.38027194	     -3.94198717	     -4.27306633	      0.77210669	      4.81871091
      3.98000000	     -3.40143911	      0.03754133	    -88.12876440	      0.09618472	      0.94587120	      1.11974553	      8.52552251	      7.09676095	      9.49545968	    -52.45925160	      3.70366133	     16.08170127	     22.58641482	     -3.61407231	     -1.61625941	    -25.34024177	      2.76149926	     -4.00660445	     -4.50139560	      0.59500833	      4.48944296
      3.99000000	     -3.22579211	     -0.08683502	    -88.19222847	      0.09855350	      0.94638527	      1.12424343	      9.42140237	      6.67750570	      9.06792055	    -54.09541965	      3.89509617	     16.18332890	     22.13623576	     -3.31339959	     -1.76597484	    -25.38636492	      3.12057818	     -4.06874708	     -4.75431497	      0.41104199	      4.17061070
      4.00000000	     -3.07804135	     -0.17415711	    -88.25179167	      0.10084609	      0.94689871	      1.12861027	     10.33742796	      6.28718529	      8.66688343	    -55.57186721	      4.26768818	     16.14361151	     21.73085201	     -3.03943161	     -1.89769006	    -25.42015274	      3.45140427	     -4.12887880	     -4.95981603	      0.26294892	      3.83063124
      4.01000000	     -2.94609701	     -0.24294184	    -88.30936077	      0.10306405	      0.94746187	      1.13286488	     11.23863344	      5.91554822	      8.29310306	    -56.85277816	      4.79017516	     15.83792876	     21.33135918	     -2.77536131	     -1.99193198	    -25.41232604	      3.73977177	     -4.19095574	     -5.13687812	      0.13462461	      3.49036335
      4.02000000	     -2.86202382	     -0.28760109	    -88.36299150	      0.10518343	      0.94807010	      1.13703472	     12.11838725	      5.59773740	      7.91406098	    -57.89802765	      5.33547567	     14.74800861	     20.95227418	     -2.56371378	     -2.07828185	    -25.37684128	      4.01618441	     -4.28949714	     -5.27305470	      0.06210046	      3.13282385
      4.03000000	     -2.78814111	     -0.37422409	    -88.42564248	      0.10721147	      0.94884156	      1.14112187	     12.88450926	      5.30197988	      7.58955904	    -58.68446315	      6.01111897	     13.61146916	     20.49427345	     -2.36113758	     -2.12875329	    -25.27474816	      4.25259999	     -4.38601876	     -5.45264089	      0.00112203	      2.79276313
      4.04000000	     -2.74183444	     -0.45322091	    -88.48837566	      0.10915376	      0.94967361	      1.14511595	     13.59509719	      5.03621254	      7.27891516	    -59.21173236	      6.73996822	     12.35575064	     20.03005179	     -2.18946646	     -2.16807504	    -25.13263093	      4.45601639	     -4.48660858	     -5.61599963	     -0.02934018	      2.46508621
      4.05000000	     -2.71878225	     -0.53039364	    -88.55133418	      0.11100370	      0.95057205	      1.14904101	     14.22911761	      4.80287201	      6.99571279	    -59.46679277	      7.49036128	     11.04525074	     19.54499812	     -2.04838644	     -2.21216050	    -24.93789086	      4.63596379	     -4.58827903	     -5.76756937	     -0.03426573	      2.13375802
